name GIL04_fast2.mot
datacolumns 153
datarows 4
range 0.83333325 0.85833323
endheader

                time	           pelvis_tx	           pelvis_ty	           pelvis_tz	         pelvis_tilt	         pelvis_list	     pelvis_rotation	       hip_flexion_r	     hip_adduction_r	      hip_rotation_r	        knee_angle_r	       ankle_angle_r	    subtalar_angle_r	         mtp_angle_r	       hip_flexion_l	     hip_adduction_l	      hip_rotation_l	        knee_angle_l	       ankle_angle_l	    subtalar_angle_l	         mtp_angle_l	    lumbar_extension	      lumbar_bending	     lumbar_rotation	     ground_force_vx	     ground_force_vy	     ground_force_vz	     ground_force_px	     ground_force_py	     ground_force_pz	     ground_force_vx	     ground_force_vy	     ground_force_vz	     ground_force_px	     ground_force_py	     ground_force_pz	     ground_torque_x	     ground_torque_y	     ground_torque_z	     ground_torque_x	     ground_torque_y	     ground_torque_z	    ground_marker_px	    ground_marker_py	    ground_marker_pz	    ground_marker_px	    ground_marker_py	    ground_marker_pz	    ground_marker_px	    ground_marker_py	    ground_marker_pz	    ground_marker_px	    ground_marker_py	    ground_marker_pz	    ground_marker_px	    ground_marker_py	    ground_marker_pz	    ground_marker_px	    ground_marker_py	    ground_marker_pz	    ground_marker_px	    ground_marker_py	    ground_marker_pz	    ground_marker_px	    ground_marker_py	    ground_marker_pz	    ground_marker_px	    ground_marker_py	    ground_marker_pz	    ground_marker_px	    ground_marker_py	    ground_marker_pz	    ground_marker_px	    ground_marker_py	    ground_marker_pz	    ground_marker_px	    ground_marker_py	    ground_marker_pz	    ground_marker_px	    ground_marker_py	    ground_marker_pz	    ground_marker_px	    ground_marker_py	    ground_marker_pz	    ground_marker_px	    ground_marker_py	    ground_marker_pz	    ground_marker_px	    ground_marker_py	    ground_marker_pz	    ground_marker_px	    ground_marker_py	    ground_marker_pz	    ground_marker_px	    ground_marker_py	    ground_marker_pz	    ground_marker_px	    ground_marker_py	    ground_marker_pz	    ground_marker_px	    ground_marker_py	    ground_marker_pz	    ground_marker_px	    ground_marker_py	    ground_marker_pz	    ground_marker_px	    ground_marker_py	    ground_marker_pz	    ground_marker_px	    ground_marker_py	    ground_marker_pz	    ground_marker_px	    ground_marker_py	    ground_marker_pz	    ground_marker_px	    ground_marker_py	    ground_marker_pz	    ground_marker_px	    ground_marker_py	    ground_marker_pz	    ground_marker_px	    ground_marker_py	    ground_marker_pz	    ground_marker_px	    ground_marker_py	    ground_marker_pz	    ground_marker_px	    ground_marker_py	    ground_marker_pz	    ground_marker_px	    ground_marker_py	    ground_marker_pz	    ground_marker_px	    ground_marker_py	    ground_marker_pz	    ground_marker_px	    ground_marker_py	    ground_marker_pz	    ground_marker_px	    ground_marker_py	    ground_marker_pz	    ground_marker_px	    ground_marker_py	    ground_marker_pz	    ground_marker_px	    ground_marker_py	    ground_marker_pz	    ground_marker_px	    ground_marker_py	    ground_marker_pz	    ground_marker_px	    ground_marker_py	    ground_marker_pz	
          0.83333325	          2.17722511	          0.76142007	         -0.18829183	         -5.83046341	         -3.67545414	          2.58862853	         28.96855927	          0.33963144	          3.57513666	        -41.25539017	          1.46115100	          0.00000000	          0.00000000	          1.04903698	          2.77665019	         -5.91770697	         -2.81245351	          3.95418501	          0.00000000	          0.00000000	         -5.75670290	          2.83600831	         -0.72500801	          0.00000000	          0.00000000	          0.00000000	          1.52992773	          0.00000000	         -0.13094717	         -5.32016913	        199.83385133	          1.98354214	          2.13435449	          0.00000000	         -0.21249130	          0.00000000	          0.00000000	          0.00000000	          0.00000000	         -0.99258649	          0.00000000	          2.11369038	          0.69568831	         -0.18184011	          2.11146736	          0.70572758	         -0.11842082	          2.10358977	          0.69979680	         -0.24386276	          2.23922300	          0.40577847	         -0.11420084	          2.07816768	          0.38477311	         -0.21193662	          2.13946700	          0.10780773	         -0.11394575	          2.03216171	          0.06413947	         -0.20396887	          2.17722511	          0.76142007	         -0.18829183	          2.18304229	          0.76579982	         -0.09565661	          2.17140770	          0.75704032	         -0.28092706	          2.03595853	          0.81022847	         -0.16051206	          2.02976155	          0.80553263	         -0.21532269	          2.24538541	          0.40910685	         -0.06418889	          2.06973052	          0.38047838	         -0.26103213	          2.25903964	          0.40620479	         -0.15794457	          2.08522797	          0.38349354	         -0.16685838	          2.13195944	          0.11034899	         -0.08139687	          2.02326322	          0.06458802	         -0.23729853	          2.14797354	          0.11369662	         -0.13978450	          2.02750659	          0.07104275	         -0.17513603	          2.08250833	          1.15221119	         -0.18982598	          2.16717052	          1.11334455	         -0.13033842	          2.16208100	          1.11320591	         -0.25569692	          2.15989971	          1.10113704	         -0.19533229	          2.19072628	          0.96076316	         -0.19573410	          2.22053385	          0.49881998	          0.01641021	          2.21129227	          0.47857654	         -0.27571771	          2.22786713	          0.56767368	         -0.05415625	          2.15554190	          0.54114366	         -0.21549994	          2.27121019	          0.49590695	         -0.06586707	          2.13766789	          0.45597294	         -0.20294368	          2.14653754	          0.21120113	         -0.00939913	          2.12449455	          0.14973983	         -0.25282234	          2.18388844	          0.25699556	         -0.06613980	          2.07293034	          0.21434262	         -0.22784567	          2.22312450	          0.06417641	         -0.09553284	          2.12323117	          0.03709145	         -0.21449782	
          0.84166658	          2.18701172	          0.76057673	         -0.18853788	         -5.80084038	         -3.79234576	          2.84963298	         29.66579056	          0.42180482	          3.62543869	        -38.53866959	          1.96265483	          0.00000000	          0.00000000	         -0.26680851	          2.70073247	         -5.83608437	         -1.94997823	          4.11377525	          0.00000000	          0.00000000	         -5.85318232	          3.02093005	         -1.22496033	          0.00000000	          0.00000000	          0.00000000	          1.53011743	          0.00000000	         -0.13075325	         -3.33849689	        202.42998380	          1.33936379	          2.13482935	          0.00000000	         -0.21167130	          0.00000000	          0.00000000	          0.00000000	          0.00000000	         -1.07797595	          0.00000000	          2.12359810	          0.69480461	         -0.18173142	          2.12161303	          0.70490837	         -0.11831140	          2.11311579	          0.69890660	         -0.24370952	          2.25321078	          0.40617841	         -0.11534241	          2.08067203	          0.38474116	         -0.21146385	          2.17127490	          0.10184879	         -0.11367089	          2.03233814	          0.06459546	         -0.20305994	          2.18701172	          0.76057673	         -0.18853788	          2.19328642	          0.76500869	         -0.09593818	          2.18073702	          0.75614470	         -0.28113759	          2.04594374	          0.80931056	         -0.16003941	          2.03933454	          0.80470949	         -0.21479420	          2.25967717	          0.40952384	         -0.06537002	          2.07202554	          0.38059735	         -0.26053590	          2.27275753	          0.40704089	         -0.15927391	          2.08789968	          0.38327530	         -0.16618319	          2.16392255	          0.10400739	         -0.08105901	          2.02331376	          0.06508394	         -0.23635510	          2.17942715	          0.10790712	         -0.13946788	          2.02773833	          0.07145766	         -0.17415434	          2.09278440	          1.15140128	         -0.18962882	          2.17725158	          1.11238527	         -0.13012522	          2.17271018	          1.11235178	         -0.25531983	          2.17013121	          1.10019565	         -0.19512486	          2.20099592	          0.95984203	         -0.19545063	          2.23412514	          0.49914718	          0.01535811	          2.21565127	          0.47591451	         -0.27562588	          2.24021459	          0.56820893	         -0.05537297	          2.16088557	          0.53930157	         -0.21518576	          2.28438807	          0.49689054	         -0.06730704	          2.14162350	          0.45499322	         -0.20252678	          2.17303658	          0.20568933	         -0.00924714	          2.12500787	          0.14959952	         -0.25227159	          2.20695519	          0.25335038	         -0.06640599	          2.07384491	          0.21462232	         -0.22706711	          2.25797534	          0.06409161	         -0.09594070	          2.12314177	          0.03713522	         -0.21420887	
          0.84999990	          2.19685125	          0.75947189	         -0.18878342	         -5.76881981	         -3.87981319	          3.12808871	         30.30614090	          0.48709941	          3.36671782	        -35.76552200	          2.39472651	          0.00000000	          0.00000000	         -1.56950760	          2.64196491	         -5.72650719	         -1.13997638	          4.31843042	          0.00000000	          0.00000000	         -5.92147970	          3.09267974	         -1.55926180	          0.00000000	          0.00000000	          0.00000000	          1.53030786	          0.00000000	         -0.13061746	         -1.31917707	        206.11091033	          0.82105977	          2.13525122	          0.00000000	         -0.21094432	          0.00000000	          0.00000000	          0.00000000	          0.00000000	         -1.15379810	          0.00000000	          2.13356256	          0.69365507	         -0.18166682	          2.13182330	          0.70378643	         -0.11822694	          2.12269020	          0.69778609	         -0.24358040	          2.26693630	          0.40624306	         -0.11661709	          2.08334303	          0.38465542	         -0.21104501	          2.20340490	          0.09638906	         -0.11333759	          2.03249693	          0.06502749	         -0.20220868	          2.19685125	          0.75947189	         -0.18878342	          2.20359588	          0.76390320	         -0.09621062	          2.19010639	          0.75504065	         -0.28135622	          2.05600929	          0.80811119	         -0.15952650	          2.04899025	          0.80362529	         -0.21419758	          2.27346373	          0.40947744	         -0.06664528	          2.07450819	          0.38066894	         -0.26009658	          2.28425741	          0.40684238	         -0.16070135	          2.09084272	          0.38322937	         -0.16547786	          2.19616008	          0.09822012	         -0.08068163	          2.02337193	          0.06555940	         -0.23547579	          2.21119857	          0.10266320	         -0.13916034	          2.02802110	          0.07184725	         -0.17322968	          2.10305214	          1.15031016	         -0.18944839	          2.18738699	          1.11120999	         -0.12987736	          2.18296123	          1.11118233	         -0.25513777	          2.18039131	          1.09900331	         -0.19487840	          2.21101403	          0.95863950	         -0.19521210	          2.24689841	          0.49876630	          0.01419706	          2.22011971	          0.47325361	         -0.27553797	          2.25159383	          0.56795156	         -0.05676683	          2.16647053	          0.53783005	         -0.21488932	          2.29614806	          0.49695274	         -0.06901214	          2.14575505	          0.45395225	         -0.20206240	          2.19953799	          0.20049864	         -0.00912809	          2.12556696	          0.14937952	         -0.25170565	          2.22982121	          0.24979945	         -0.06670696	          2.07486224	          0.21491888	         -0.22651455	          2.29268408	          0.06468363	         -0.09637711	          2.12302756	          0.03717931	         -0.21393003	
          0.85833323	          2.20674181	          0.75810409	         -0.18903093	         -5.73828888	         -3.93765378	          3.41988945	         30.89808273	          0.53601700	          2.81568861	        -32.95124817	          2.74829078	          0.00000000	          0.00000000	         -2.85591984	          2.59744525	         -5.58882236	         -0.37999859	          4.56827927	          0.00000000	          0.00000000	         -5.99329424	          3.12427950	         -1.86495328	          0.00000000	          0.00000000	          0.00000000	          1.53049524	          0.00000000	         -0.13052643	          0.76912464	        210.70839595	          0.43111343	          2.13563037	          0.00000000	         -0.21030786	          0.00000000	          0.00000000	          0.00000000	          0.00000000	         -1.22677808	          0.00000000	          2.14358807	          0.69223487	         -0.18164186	          2.14208841	          0.70236498	         -0.11817349	          2.13231134	          0.69643652	         -0.24348180	          2.28041673	          0.40597776	         -0.11801666	          2.08617902	          0.38450912	         -0.21069820	          2.23575735	          0.09156547	         -0.11297674	          2.03264761	          0.06543153	         -0.20143995	          2.20674181	          0.75810409	         -0.18903093	          2.21396327	          0.76248300	         -0.09647615	          2.19952035	          0.75372523	         -0.28158572	          2.06615996	          0.80663317	         -0.15896255	          2.05873251	          0.80229092	         -0.21353526	          2.28677440	          0.40897146	         -0.06800800	          2.07717967	          0.38068649	         -0.25973290	          2.29570794	          0.40618944	         -0.16220097	          2.09393835	          0.38347870	         -0.16487357	          2.22856331	          0.09311122	         -0.08029485	          2.02344704	          0.06601042	         -0.23468551	          2.24311471	          0.09793429	         -0.13877533	          2.02820444	          0.07227842	         -0.17238022	          2.11334443	          1.14892972	         -0.18928787	          2.19757986	          1.10977745	         -0.12960503	          2.19318366	          1.10975075	         -0.25491655	          2.19063711	          1.09753811	         -0.19462034	          2.22108102	          0.95718354	         -0.19495496	          2.25891733	          0.49766296	          0.01296075	          2.22471094	          0.47059163	         -0.27546665	          2.26249337	          0.56695592	         -0.05798187	          2.17252302	          0.53654552	         -0.21460848	          2.30743861	          0.49635935	         -0.07050999	          2.15013885	          0.45301932	         -0.20165810	          2.22597003	          0.19571011	         -0.00906145	          2.12618351	          0.14907908	         -0.25115323	          2.25250602	          0.24641614	         -0.06704806	          2.07603598	          0.21523182	         -0.22599992	          2.32712531	          0.06600133	         -0.09683932	          2.12290525	          0.03722246	         -0.21367203	
